<svg data-v-423bf9ae="" xmlns="http://www.w3.org/2000/svg" viewBox="0 0 528 90" class="iconLeft"><!----><!----><!----><g data-v-423bf9ae="" id="28511000-3a4f-4ee2-8ea3-5b71c9cc8c9a" fill="black" transform="matrix(4.2105263157894735,0,0,4.2105263157894735,81.18791255511738,9.694738551190028)"><path d="M6.30 1.26L6.30 1.26Q7.36 1.26 8.14 1.54L8.14 1.54L8.14 1.54Q8.92 1.82 9.72 2.46L9.72 2.46L9.72 2.46Q9.88 2.59 9.94 2.72L9.94 2.72L9.94 2.72Q10.00 2.86 10.00 3.04L10.00 3.04L10.00 3.04Q10.00 3.32 9.79 3.50L9.79 3.50L9.79 3.50Q9.59 3.68 9.32 3.68L9.32 3.68L9.32 3.68Q9.06 3.68 8.83 3.50L8.83 3.50L8.83 3.50Q8.26 3.01 7.71 2.79L7.71 2.79L7.71 2.79Q7.17 2.58 6.30 2.58L6.30 2.58L6.30 2.58Q5.21 2.58 4.29 3.15L4.29 3.15L4.29 3.15Q3.37 3.72 2.83 4.71L2.83 4.71L2.83 4.71Q2.30 5.70 2.30 6.86L2.30 6.86L2.30 6.86Q2.30 8.04 2.83 9.02L2.83 9.02L2.83 9.02Q3.37 10.00 4.29 10.57L4.29 10.57L4.29 10.57Q5.21 11.14 6.30 11.14L6.30 11.14L6.30 11.14Q7.64 11.14 8.88 10.22L8.88 10.22L8.88 10.22Q9.11 10.05 9.34 10.05L9.34 10.05L9.34 10.05Q9.60 10.05 9.78 10.24L9.78 10.24L9.78 10.24Q9.95 10.43 9.95 10.74L9.95 10.74L9.95 10.74Q9.95 11.03 9.73 11.26L9.73 11.26L9.73 11.26Q8.22 12.47 6.30 12.47L6.30 12.47L6.30 12.47Q4.80 12.47 3.56 11.73L3.56 11.73L3.56 11.73Q2.32 10.99 1.61 9.70L1.61 9.70L1.61 9.70Q0.90 8.41 0.90 6.86L0.90 6.86L0.90 6.86Q0.90 5.32 1.61 4.04L1.61 4.04L1.61 4.04Q2.32 2.76 3.56 2.01L3.56 2.01L3.56 2.01Q4.80 1.26 6.30 1.26L6.30 1.26ZM15.89 4.59L15.89 4.59Q16.63 4.59 17.05 4.82L17.05 4.82L17.05 4.82Q17.47 5.04 17.47 5.38L17.47 5.38L17.47 5.38Q17.47 5.47 17.46 5.52L17.46 5.52L17.46 5.52Q17.33 5.96 16.90 5.96L16.90 5.96L16.90 5.96Q16.83 5.96 16.69 5.94L16.69 5.94L16.69 5.94Q16.13 5.84 15.78 5.84L15.78 5.84L15.78 5.84Q14.77 5.84 14.15 6.30L14.15 6.30L14.15 6.30Q13.54 6.76 13.54 7.55L13.54 7.55L13.54 11.63L13.54 11.63Q13.54 11.97 13.36 12.15L13.36 12.15L13.36 12.15Q13.19 12.33 12.84 12.33L12.84 12.33L12.84 12.33Q12.50 12.33 12.32 12.16L12.32 12.16L12.32 12.16Q12.14 11.98 12.14 11.63L12.14 11.63L12.14 5.38L12.14 5.38Q12.14 5.04 12.32 4.86L12.32 4.86L12.32 4.86Q12.50 4.68 12.84 4.68L12.84 4.68L12.84 4.68Q13.54 4.68 13.54 5.38L13.54 5.38L13.54 5.64L13.54 5.64Q13.96 5.15 14.57 4.87L14.57 4.87L14.57 4.87Q15.19 4.59 15.89 4.59L15.89 4.59ZM22.41 4.62L22.41 4.62Q23.52 4.62 24.40 5.12L24.40 5.12L24.40 5.12Q25.27 5.61 25.77 6.50L25.77 6.50L25.77 6.50Q26.26 7.38 26.26 8.51L26.26 8.51L26.26 8.51Q26.26 9.63 25.77 10.51L25.77 10.51L25.77 10.51Q25.28 11.40 24.41 11.89L24.41 11.89L24.41 11.89Q23.53 12.39 22.41 12.39L22.41 12.39L22.41 12.39Q21.29 12.39 20.41 11.89L20.41 11.89L20.41 11.89Q19.53 11.40 19.04 10.51L19.04 10.51L19.04 10.51Q18.55 9.63 18.55 8.51L18.55 8.51L18.55 8.51Q18.55 7.38 19.04 6.50L19.04 6.50L19.04 6.50Q19.53 5.61 20.41 5.12L20.41 5.12L20.41 5.12Q21.29 4.62 22.41 4.62L22.41 4.62ZM22.41 5.88L22.41 5.88Q21.70 5.88 21.13 6.22L21.13 6.22L21.13 6.22Q20.57 6.55 20.24 7.15L20.24 7.15L20.24 7.15Q19.92 7.76 19.92 8.51L19.92 8.51L19.92 8.51Q19.92 9.27 20.24 9.86L20.24 9.86L20.24 9.86Q20.57 10.46 21.13 10.79L21.13 10.79L21.13 10.79Q21.70 11.13 22.41 11.13L22.41 11.13L22.41 11.13Q23.13 11.13 23.70 10.79L23.70 10.79L23.70 10.79Q24.26 10.46 24.58 9.86L24.58 9.86L24.58 9.86Q24.89 9.27 24.89 8.51L24.89 8.51L24.89 8.51Q24.89 7.76 24.58 7.15L24.58 7.15L24.58 7.15Q24.26 6.55 23.70 6.22L23.70 6.22L23.70 6.22Q23.13 5.88 22.41 5.88L22.41 5.88ZM31.08 4.62L31.08 4.62Q31.99 4.62 32.71 4.91L32.71 4.91L32.71 4.91Q33.43 5.21 33.85 5.73L33.85 5.73L33.85 5.73Q34.03 5.95 34.03 6.17L34.03 6.17L34.03 6.17Q34.03 6.41 33.80 6.61L33.80 6.61L33.80 6.61Q33.64 6.72 33.40 6.72L33.40 6.72L33.40 6.72Q33.04 6.72 32.75 6.45L32.75 6.45L32.75 6.45Q32.40 6.13 32.00 6.00L32.00 6.00L32.00 6.00Q31.61 5.87 31.05 5.87L31.05 5.87L31.05 5.87Q30.41 5.87 30.00 6.08L30.00 6.08L30.00 6.08Q29.58 6.30 29.58 6.69L29.58 6.69L29.58 6.69Q29.58 6.97 29.72 7.16L29.72 7.16L29.72 7.16Q29.86 7.35 30.25 7.51L30.25 7.51L30.25 7.51Q30.65 7.67 31.39 7.83L31.39 7.83L31.39 7.83Q32.91 8.13 33.55 8.68L33.55 8.68L33.55 8.68Q34.19 9.23 34.19 10.09L34.19 10.09L34.19 10.09Q34.19 10.74 33.84 11.26L33.84 11.26L33.84 11.26Q33.49 11.79 32.81 12.09L32.81 12.09L32.81 12.09Q32.13 12.39 31.18 12.39L31.18 12.39L31.18 12.39Q30.23 12.39 29.39 12.10L29.39 12.10L29.39 12.10Q28.55 11.80 28.07 11.33L28.07 11.33L28.07 11.33Q27.89 11.14 27.89 10.89L27.89 10.89L27.89 10.89Q27.89 10.56 28.17 10.35L28.17 10.35L28.17 10.35Q28.43 10.15 28.66 10.15L28.66 10.15L28.66 10.15Q28.94 10.15 29.19 10.40L29.19 10.40L29.19 10.40Q29.46 10.70 29.99 10.91L29.99 10.91L29.99 10.91Q30.52 11.13 31.12 11.13L31.12 11.13L31.12 11.13Q31.92 11.13 32.36 10.86L32.36 10.86L32.36 10.86Q32.80 10.60 32.80 10.15L32.80 10.15L32.80 10.15Q32.80 9.72 32.37 9.43L32.37 9.43L32.37 9.43Q31.93 9.14 30.90 8.95L30.90 8.95L30.90 8.95Q28.21 8.43 28.21 6.73L28.21 6.73L28.21 6.73Q28.21 6.05 28.62 5.57L28.62 5.57L28.62 5.57Q29.02 5.10 29.68 4.86L29.68 4.86L29.68 4.86Q30.34 4.62 31.08 4.62L31.08 4.62ZM38.68 4.62L38.68 4.62Q39.59 4.62 40.31 4.91L40.31 4.91L40.31 4.91Q41.03 5.21 41.45 5.73L41.45 5.73L41.45 5.73Q41.64 5.95 41.64 6.17L41.64 6.17L41.64 6.17Q41.64 6.41 41.40 6.61L41.40 6.61L41.40 6.61Q41.24 6.72 41.01 6.72L41.01 6.72L41.01 6.72Q40.64 6.72 40.35 6.45L40.35 6.45L40.35 6.45Q40.00 6.13 39.61 6.00L39.61 6.00L39.61 6.00Q39.21 5.87 38.65 5.87L38.65 5.87L38.65 5.87Q38.01 5.87 37.60 6.08L37.60 6.08L37.60 6.08Q37.18 6.30 37.18 6.69L37.18 6.69L37.18 6.69Q37.18 6.97 37.32 7.16L37.32 7.16L37.32 7.16Q37.46 7.35 37.86 7.51L37.86 7.51L37.86 7.51Q38.25 7.67 38.99 7.83L38.99 7.83L38.99 7.83Q40.52 8.13 41.15 8.68L41.15 8.68L41.15 8.68Q41.79 9.23 41.79 10.09L41.79 10.09L41.79 10.09Q41.79 10.74 41.44 11.26L41.44 11.26L41.44 11.26Q41.09 11.79 40.41 12.09L40.41 12.09L40.41 12.09Q39.73 12.39 38.78 12.39L38.78 12.39L38.78 12.39Q37.83 12.39 36.99 12.10L36.99 12.10L36.99 12.10Q36.15 11.80 35.67 11.33L35.67 11.33L35.67 11.33Q35.49 11.14 35.49 10.89L35.49 10.89L35.49 10.89Q35.49 10.56 35.77 10.35L35.77 10.35L35.77 10.35Q36.04 10.15 36.26 10.15L36.26 10.15L36.26 10.15Q36.54 10.15 36.79 10.40L36.79 10.40L36.79 10.40Q37.06 10.70 37.59 10.91L37.59 10.91L37.59 10.91Q38.12 11.13 38.72 11.13L38.72 11.13L38.72 11.13Q39.52 11.13 39.96 10.86L39.96 10.86L39.96 10.86Q40.40 10.60 40.40 10.15L40.40 10.15L40.40 10.15Q40.40 9.72 39.97 9.43L39.97 9.43L39.97 9.43Q39.54 9.14 38.50 8.95L38.50 8.95L38.50 8.95Q35.81 8.43 35.81 6.73L35.81 6.73L35.81 6.73Q35.81 6.05 36.22 5.57L36.22 5.57L36.22 5.57Q36.62 5.10 37.28 4.86L37.28 4.86L37.28 4.86Q37.94 4.62 38.68 4.62L38.68 4.62ZM43.74 5.39L43.74 5.39Q43.74 5.07 43.94 4.87L43.94 4.87L43.94 4.87Q44.14 4.68 44.45 4.68L44.45 4.68L44.45 4.68Q44.77 4.68 44.97 4.87L44.97 4.87L44.97 4.87Q45.16 5.07 45.16 5.39L45.16 5.39L45.16 11.62L45.16 11.62Q45.16 11.93 44.97 12.13L44.97 12.13L44.97 12.13Q44.77 12.33 44.45 12.33L44.45 12.33L44.45 12.33Q44.14 12.33 43.94 12.13L43.94 12.13L43.94 12.13Q43.74 11.93 43.74 11.62L43.74 11.62L43.74 5.39ZM44.45 1.58L44.45 1.58Q44.83 1.58 45.10 1.85L45.10 1.85L45.10 1.85Q45.37 2.13 45.37 2.51L45.37 2.51L45.37 2.51Q45.37 2.88 45.10 3.16L45.10 3.16L45.10 3.16Q44.83 3.43 44.45 3.43L44.45 3.43L44.45 3.43Q44.07 3.43 43.80 3.16L43.80 3.16L43.80 3.16Q43.53 2.88 43.53 2.51L43.53 2.51L43.53 2.51Q43.53 2.13 43.80 1.85L43.80 1.85L43.80 1.85Q44.07 1.58 44.45 1.58L44.45 1.58ZM51.63 4.61L51.63 4.61Q52.60 4.61 53.37 5.03L53.37 5.03L53.37 5.03Q54.14 5.45 54.57 6.25L54.57 6.25L54.57 6.25Q55.01 7.06 55.01 8.19L55.01 8.19L55.01 11.63L55.01 11.63Q55.01 11.94 54.80 12.14L54.80 12.14L54.80 12.14Q54.60 12.35 54.29 12.35L54.29 12.35L54.29 12.35Q53.98 12.35 53.78 12.14L53.78 12.14L53.78 12.14Q53.58 11.94 53.58 11.63L53.58 11.63L53.58 8.19L53.58 8.19Q53.58 7.06 52.97 6.47L52.97 6.47L52.97 6.47Q52.36 5.89 51.35 5.89L51.35 5.89L51.35 5.89Q50.76 5.89 50.28 6.13L50.28 6.13L50.28 6.13Q49.80 6.37 49.53 6.78L49.53 6.78L49.53 6.78Q49.25 7.18 49.25 7.69L49.25 7.69L49.25 11.63L49.25 11.63Q49.25 11.94 49.06 12.14L49.06 12.14L49.06 12.14Q48.86 12.35 48.54 12.35L48.54 12.35L48.54 12.35Q48.23 12.35 48.03 12.14L48.03 12.14L48.03 12.14Q47.82 11.94 47.82 11.63L47.82 11.63L47.82 5.39L47.82 5.39Q47.82 5.07 48.03 4.87L48.03 4.87L48.03 4.87Q48.23 4.68 48.54 4.68L48.54 4.68L48.54 4.68Q48.86 4.68 49.06 4.87L49.06 4.87L49.06 4.87Q49.25 5.07 49.25 5.39L49.25 5.39L49.25 5.54L49.25 5.54Q49.70 5.10 50.32 4.85L50.32 4.85L50.32 4.85Q50.93 4.61 51.63 4.61L51.63 4.61ZM60.84 4.62L60.84 4.62Q61.95 4.62 62.83 5.12L62.83 5.12L62.83 5.12Q63.70 5.61 64.20 6.50L64.20 6.50L64.20 6.50Q64.69 7.38 64.69 8.51L64.69 8.51L64.69 11.54L64.69 11.54Q64.69 12.64 64.20 13.55L64.20 13.55L64.20 13.55Q63.71 14.46 62.83 14.99L62.83 14.99L62.83 14.99Q61.94 15.51 60.82 15.51L60.82 15.51L60.82 15.51Q59.81 15.51 58.94 15.11L58.94 15.11L58.94 15.11Q58.07 14.71 57.48 13.97L57.48 13.97L57.48 13.97Q57.33 13.78 57.33 13.58L57.33 13.58L57.33 13.58Q57.33 13.29 57.62 13.08L57.62 13.08L57.62 13.08Q57.82 12.95 58.02 12.95L58.02 12.95L58.02 12.95Q58.37 12.95 58.59 13.24L58.59 13.24L58.59 13.24Q58.97 13.73 59.54 13.99L59.54 13.99L59.54 13.99Q60.12 14.25 60.84 14.25L60.84 14.25L60.84 14.25Q61.53 14.25 62.09 13.92L62.09 13.92L62.09 13.92Q62.65 13.59 62.99 12.96L62.99 12.96L62.99 12.96Q63.32 12.32 63.32 11.44L63.32 11.44L63.32 10.75L63.32 10.75Q62.89 11.52 62.17 11.96L62.17 11.96L62.17 11.96Q61.46 12.39 60.56 12.39L60.56 12.39L60.56 12.39Q59.53 12.39 58.71 11.89L58.71 11.89L58.71 11.89Q57.89 11.40 57.44 10.51L57.44 10.51L57.44 10.51Q56.98 9.63 56.98 8.51L56.98 8.51L56.98 8.51Q56.98 7.38 57.47 6.50L57.47 6.50L57.47 6.50Q57.96 5.61 58.84 5.12L58.84 5.12L58.84 5.12Q59.72 4.62 60.84 4.62L60.84 4.62ZM60.84 11.13L60.84 11.13Q61.56 11.13 62.13 10.79L62.13 10.79L62.13 10.79Q62.69 10.46 63.01 9.86L63.01 9.86L63.01 9.86Q63.32 9.27 63.32 8.51L63.32 8.51L63.32 8.51Q63.32 7.76 63.01 7.15L63.01 7.15L63.01 7.15Q62.69 6.55 62.13 6.22L62.13 6.22L62.13 6.22Q61.56 5.88 60.84 5.88L60.84 5.88L60.84 5.88Q60.13 5.88 59.56 6.22L59.56 6.22L59.56 6.22Q59.00 6.55 58.67 7.15L58.67 7.15L58.67 7.15Q58.35 7.76 58.35 8.51L58.35 8.51L58.35 8.51Q58.35 9.27 58.67 9.86L58.67 9.86L58.67 9.86Q59.00 10.46 59.56 10.79L59.56 10.79L59.56 10.79Q60.13 11.13 60.84 11.13L60.84 11.13ZM68.42 11.61L68.42 11.61Q68.42 11.91 68.22 12.12L68.22 12.12L68.22 12.12Q68.01 12.33 67.69 12.33L67.69 12.33L67.69 12.33Q67.38 12.33 67.17 12.12L67.17 12.12L67.17 12.12Q66.96 11.91 66.96 11.61L66.96 11.61L66.96 2.13L66.96 2.13Q66.96 1.81 67.17 1.60L67.17 1.60L67.17 1.60Q67.38 1.40 67.69 1.40L67.69 1.40L70.49 1.40L70.49 1.40Q71.53 1.40 72.35 1.86L72.35 1.86L72.35 1.86Q73.16 2.32 73.62 3.15L73.62 3.15L73.62 3.15Q74.07 3.98 74.07 5.03L74.07 5.03L74.07 5.03Q74.07 6.05 73.62 6.85L73.62 6.85L73.62 6.85Q73.16 7.64 72.35 8.09L72.35 8.09L72.35 8.09Q71.53 8.54 70.49 8.54L70.49 8.54L68.42 8.54L68.42 11.61ZM70.49 7.20L70.49 7.20Q71.44 7.20 72.06 6.59L72.06 6.59L72.06 6.59Q72.67 5.98 72.67 5.03L72.67 5.03L72.67 5.03Q72.67 4.03 72.06 3.39L72.06 3.39L72.06 3.39Q71.44 2.74 70.49 2.74L70.49 2.74L68.42 2.74L68.42 7.20L70.49 7.20ZM79.02 4.62L79.02 4.62Q80.09 4.62 80.97 5.13L80.97 5.13L80.97 5.13Q81.84 5.64 82.36 6.53L82.36 6.53L82.36 6.53Q82.87 7.42 82.87 8.51L82.87 8.51L82.87 11.63L82.87 11.63Q82.87 11.94 82.66 12.14L82.66 12.14L82.66 12.14Q82.46 12.35 82.15 12.35L82.15 12.35L82.15 12.35Q81.84 12.35 81.64 12.14L81.64 12.14L81.64 12.14Q81.44 11.94 81.44 11.63L81.44 11.63L81.44 11.12L81.44 11.12Q80.95 11.72 80.25 12.05L80.25 12.05L80.25 12.05Q79.55 12.39 78.74 12.39L78.74 12.39L78.74 12.39Q77.73 12.39 76.91 11.89L76.91 11.89L76.91 11.89Q76.09 11.38 75.62 10.49L75.62 10.49L75.62 10.49Q75.15 9.60 75.15 8.51L75.15 8.51L75.15 8.51Q75.15 7.42 75.66 6.53L75.66 6.53L75.66 6.53Q76.16 5.64 77.05 5.13L77.05 5.13L77.05 5.13Q77.94 4.62 79.02 4.62L79.02 4.62ZM79.02 11.13L79.02 11.13Q79.72 11.13 80.28 10.79L80.28 10.79L80.28 10.79Q80.85 10.44 81.17 9.85L81.17 9.85L81.17 9.85Q81.49 9.25 81.49 8.51L81.49 8.51L81.49 8.51Q81.49 7.77 81.17 7.17L81.17 7.17L81.17 7.17Q80.85 6.57 80.28 6.22L80.28 6.22L80.28 6.22Q79.72 5.88 79.02 5.88L79.02 5.88L79.02 5.88Q78.32 5.88 77.75 6.22L77.75 6.22L77.75 6.22Q77.18 6.57 76.85 7.17L76.85 7.17L76.85 7.17Q76.52 7.77 76.52 8.51L76.52 8.51L76.52 8.51Q76.52 9.25 76.85 9.85L76.85 9.85L76.85 9.85Q77.18 10.44 77.75 10.79L77.75 10.79L77.75 10.79Q78.32 11.13 79.02 11.13L79.02 11.13ZM88.26 10.93L88.26 10.93Q88.51 10.93 88.68 11.13L88.68 11.13L88.68 11.13Q88.86 11.33 88.86 11.63L88.86 11.63L88.86 11.63Q88.86 11.94 88.63 12.14L88.63 12.14L88.63 12.14Q88.40 12.33 88.03 12.33L88.03 12.33L87.78 12.33L87.78 12.33Q87.09 12.33 86.53 11.98L86.53 11.98L86.53 11.98Q85.96 11.62 85.64 11.00L85.64 11.00L85.64 11.00Q85.32 10.39 85.32 9.62L85.32 9.62L85.32 6.16L84.67 6.16L84.67 6.16Q84.38 6.16 84.20 5.99L84.20 5.99L84.20 5.99Q84.01 5.82 84.01 5.57L84.01 5.57L84.01 5.57Q84.01 5.29 84.20 5.12L84.20 5.12L84.20 5.12Q84.38 4.96 84.67 4.96L84.67 4.96L85.32 4.96L85.32 2.94L85.32 2.94Q85.32 2.63 85.51 2.44L85.51 2.44L85.51 2.44Q85.71 2.24 86.02 2.24L86.02 2.24L86.02 2.24Q86.32 2.24 86.52 2.44L86.52 2.44L86.52 2.44Q86.72 2.63 86.72 2.94L86.72 2.94L86.72 4.96L87.91 4.96L87.91 4.96Q88.20 4.96 88.38 5.12L88.38 5.12L88.38 5.12Q88.56 5.29 88.56 5.57L88.56 5.57L88.56 5.57Q88.56 5.82 88.38 5.99L88.38 5.99L88.38 5.99Q88.20 6.16 87.91 6.16L87.91 6.16L86.72 6.16L86.72 9.62L86.72 9.62Q86.72 10.18 87.02 10.56L87.02 10.56L87.02 10.56Q87.33 10.93 87.78 10.93L87.78 10.93L88.26 10.93ZM94.42 4.61L94.42 4.61Q95.38 4.61 96.15 5.03L96.15 5.03L96.15 5.03Q96.92 5.45 97.36 6.25L97.36 6.25L97.36 6.25Q97.79 7.06 97.79 8.19L97.79 8.19L97.79 11.63L97.79 11.63Q97.79 11.94 97.59 12.14L97.59 12.14L97.59 12.14Q97.38 12.35 97.08 12.35L97.08 12.35L97.08 12.35Q96.77 12.35 96.57 12.14L96.57 12.14L96.57 12.14Q96.36 11.94 96.36 11.63L96.36 11.63L96.36 8.19L96.36 8.19Q96.36 7.06 95.75 6.47L95.75 6.47L95.75 6.47Q95.14 5.89 94.14 5.89L94.14 5.89L94.14 5.89Q93.55 5.89 93.07 6.13L93.07 6.13L93.07 6.13Q92.58 6.37 92.31 6.78L92.31 6.78L92.31 6.78Q92.04 7.18 92.04 7.69L92.04 7.69L92.04 11.63L92.04 11.63Q92.04 11.94 91.84 12.14L91.84 12.14L91.84 12.14Q91.64 12.35 91.32 12.35L91.32 12.35L91.32 12.35Q91.01 12.35 90.81 12.14L90.81 12.14L90.81 12.14Q90.61 11.94 90.61 11.63L90.61 11.63L90.61 2.11L90.61 2.11Q90.61 1.79 90.81 1.60L90.81 1.60L90.81 1.60Q91.01 1.40 91.32 1.40L91.32 1.40L91.32 1.40Q91.64 1.40 91.84 1.60L91.84 1.60L91.84 1.60Q92.04 1.79 92.04 2.11L92.04 2.11L92.04 5.54L92.04 5.54Q92.48 5.10 93.10 4.85L93.10 4.85L93.10 4.85Q93.72 4.61 94.42 4.61L94.42 4.61ZM102.86 4.62L102.86 4.62Q103.77 4.62 104.49 4.91L104.49 4.91L104.49 4.91Q105.21 5.21 105.63 5.73L105.63 5.73L105.63 5.73Q105.81 5.95 105.81 6.17L105.81 6.17L105.81 6.17Q105.81 6.41 105.57 6.61L105.57 6.61L105.57 6.61Q105.42 6.72 105.18 6.72L105.18 6.72L105.18 6.72Q104.82 6.72 104.52 6.45L104.52 6.45L104.52 6.45Q104.17 6.13 103.78 6.00L103.78 6.00L103.78 6.00Q103.39 5.87 102.83 5.87L102.83 5.87L102.83 5.87Q102.19 5.87 101.77 6.08L101.77 6.08L101.77 6.08Q101.36 6.30 101.36 6.69L101.36 6.69L101.36 6.69Q101.36 6.97 101.50 7.16L101.50 7.16L101.50 7.16Q101.64 7.35 102.03 7.51L102.03 7.51L102.03 7.51Q102.42 7.67 103.17 7.83L103.17 7.83L103.17 7.83Q104.69 8.13 105.33 8.68L105.33 8.68L105.33 8.68Q105.97 9.23 105.97 10.09L105.97 10.09L105.97 10.09Q105.97 10.74 105.62 11.26L105.62 11.26L105.62 11.26Q105.27 11.79 104.59 12.09L104.59 12.09L104.59 12.09Q103.91 12.39 102.96 12.39L102.96 12.39L102.96 12.39Q102.00 12.39 101.16 12.10L101.16 12.10L101.16 12.10Q100.32 11.80 99.85 11.33L99.85 11.33L99.85 11.33Q99.67 11.14 99.67 10.89L99.67 10.89L99.67 10.89Q99.67 10.56 99.95 10.35L99.95 10.35L99.95 10.35Q100.21 10.15 100.44 10.15L100.44 10.15L100.44 10.15Q100.72 10.15 100.97 10.40L100.97 10.40L100.97 10.40Q101.23 10.70 101.77 10.91L101.77 10.91L101.77 10.91Q102.30 11.13 102.90 11.13L102.90 11.13L102.90 11.13Q103.70 11.13 104.14 10.86L104.14 10.86L104.14 10.86Q104.58 10.60 104.58 10.15L104.58 10.15L104.58 10.15Q104.58 9.72 104.15 9.43L104.15 9.43L104.15 9.43Q103.71 9.14 102.68 8.95L102.68 8.95L102.68 8.95Q99.99 8.43 99.99 6.73L99.99 6.73L99.99 6.73Q99.99 6.05 100.39 5.57L100.39 5.57L100.39 5.57Q100.80 5.10 101.46 4.86L101.46 4.86L101.46 4.86Q102.12 4.62 102.86 4.62L102.86 4.62Z"></path></g><!----><g data-v-423bf9ae="" id="aa2aa952-6ac1-41ce-b17c-1d0912d0ed07" transform="matrix(1.0993550638170335,0,0,1.0993550638170335,-21.520205787589482,-9.90093379457604)" stroke="none" fill="black"><path d="M57.823 29.225l6.242-14.127c.188-.426.193-.91.015-1.34s-.526-.768-.96-.934l-9.49-3.643a1.7 1.7 0 0 0-2.165.9l-1.573 3.562-1.572-3.561a1.7 1.7 0 0 0-2.165-.9l-9.491 3.644c-.435.167-.782.504-.96.934s-.173.914.015 1.34l6.259 14.169c-12.998 2.643-21.53 11.77-21.531 23.987 0 8.786 4.323 16.13 12.501 21.235 2.247 1.405 4.744 2.524 7.421 3.327 3.195.96 3.419 1.63 4.497 4.852l.171.512c.059.175.135.458.229.808.753 2.765 1.891 6.943 4.733 6.944h.002c2.842-.001 3.98-4.183 4.733-6.95.095-.348.169-.629.228-.803l.172-.514c1.078-3.219 1.302-3.889 4.495-4.849 2.675-.802 5.172-1.921 7.423-3.326 8.178-5.107 12.5-12.45 12.5-21.236.001-12.282-8.617-21.444-21.729-24.031zm-3.901-16.29l6.312 2.422-4.795 10.85-3.688-8.355 2.171-4.917zm-14.371 2.423l6.312-2.423 6.905 15.642a41.97 41.97 0 0 0-7.312.151l-5.905-13.37zm10.45 16.526c14.64 0 25.075 7.948 26.066 19.545-1.737.362-2.846 1.213-3.775 1.933-1.07.83-1.915 1.484-3.722 1.484s-2.652-.655-3.722-1.484c-1.215-.942-2.727-2.114-5.562-2.114-2.832 0-4.342 1.172-5.555 2.114-1.069.829-1.913 1.484-3.718 1.484-1.806 0-2.651-.655-3.72-1.484-1.214-.942-2.726-2.114-5.559-2.114s-4.343 1.172-5.557 2.114c-1.069.829-1.913 1.484-3.718 1.484-1.804 0-2.648-.655-3.716-1.484-.936-.726-2.054-1.583-3.811-1.94.997-11.593 11.431-19.538 26.069-19.538zm15.251 39.723c-1.994 1.245-4.213 2.238-6.6 2.954-4.881 1.467-5.581 3.559-6.742 7.025l-.17.508c-.073.216-.169.564-.287.996-.644 2.367-1.119 3.543-1.454 4.108-.334-.564-.809-1.738-1.453-4.103a19.383 19.383 0 0 0-.289-1.001l-.167-.504c-1.16-3.469-1.86-5.562-6.743-7.029-2.388-.716-4.607-1.709-6.598-2.954-4.75-2.966-10.358-8.312-10.853-17.099.771.266 1.347.711 2.008 1.225 1.214.942 2.724 2.114 5.556 2.114 2.833 0 4.343-1.172 5.557-2.114 1.069-.83 1.913-1.484 3.718-1.484 1.806 0 2.651.655 3.72 1.484 1.214.942 2.726 2.114 5.559 2.114s4.344-1.172 5.558-2.115c1.068-.829 1.912-1.484 3.716-1.484 1.808 0 2.653.655 3.723 1.485 1.214.942 2.726 2.114 5.56 2.114 2.833 0 4.345-1.172 5.56-2.113.651-.504 1.221-.942 1.973-1.209-.501 8.776-6.105 14.118-10.852 17.082z"></path></g><!----></svg>