<?xml version="1.0" standalone="no"?>
<!DOCTYPE svg PUBLIC "-//W3C//DTD SVG 20010904//EN"
 "http://www.w3.org/TR/2001/REC-SVG-20010904/DTD/svg10.dtd">
<svg version="1.0" xmlns="http://www.w3.org/2000/svg"
 width="700.000000pt" height="700.000000pt" viewBox="0 0 700.000000 700.000000"
 preserveAspectRatio="xMidYMid meet">
<metadata>
Created by potrace 1.11, written by Peter Selinger 2001-2013
</metadata>
<g transform="translate(0.000000,700.000000) scale(0.100000,-0.100000)"
fill="#000000" stroke="none">
<path d="M3089 6303 c-96 -35 -183 -68 -194 -73 -11 -5 -91 -37 -178 -70 -87
-33 -169 -68 -182 -77 -25 -19 -45 -61 -45 -96 0 -16 91 -231 202 -477 16 -36
77 -175 137 -310 l108 -245 -46 -13 c-25 -6 -82 -22 -126 -34 -200 -53 -434
-159 -603 -273 -415 -279 -659 -676 -721 -1175 -9 -67 -6 -358 3 -420 80 -514
348 -915 821 -1226 163 -107 327 -184 564 -263 116 -39 166 -64 201 -100 45
-47 89 -159 176 -456 37 -125 90 -231 144 -285 57 -58 85 -72 146 -73 139 -1
228 117 319 429 74 249 111 341 155 385 37 37 101 68 223 108 415 137 732 345
1004 661 57 66 159 225 205 320 45 92 112 274 123 335 2 17 12 71 21 120 21
116 25 389 8 509 -82 554 -405 992 -924 1251 -112 57 -289 129 -337 138 -10 2
-25 7 -33 10 -8 3 -58 16 -110 28 -52 12 -96 23 -98 24 -2 2 16 47 61 145 11
25 34 79 52 120 18 41 44 100 58 130 153 338 269 614 269 645 0 43 -22 79 -60
99 -15 8 -146 60 -292 115 -146 56 -294 114 -330 128 -140 56 -174 36 -257
-153 l-61 -138 -27 59 c-15 33 -40 93 -57 133 -29 68 -73 121 -101 123 -7 0
-19 2 -28 4 -9 1 -95 -26 -190 -62z m145 -261 c11 -26 32 -74 47 -107 15 -33
50 -114 79 -180 29 -66 62 -142 75 -170 12 -27 37 -84 55 -125 18 -41 44 -100
57 -130 45 -99 143 -321 143 -323 0 -2 -75 -3 -167 -3 -93 0 -207 -3 -255 -7
l-86 -6 -122 277 c-68 152 -133 300 -146 327 -48 105 -144 328 -142 330 2 2
89 35 193 74 105 40 197 76 205 81 31 18 45 9 64 -38z m761 -32 c114 -44 210
-82 213 -84 5 -6 -12 -51 -62 -159 -20 -42 -36 -79 -36 -81 0 -4 -56 -129 -80
-181 -6 -11 -41 -91 -79 -178 -38 -88 -71 -155 -74 -150 -3 4 -48 107 -101
227 -53 121 -108 243 -121 271 -13 29 -25 59 -27 66 -3 17 141 349 152 349 4
0 101 -36 215 -80z m-230 -1254 c203 -24 444 -79 563 -128 15 -6 29 -12 32
-13 60 -22 90 -36 170 -78 52 -27 102 -55 111 -63 8 -8 19 -14 22 -14 11 0
106 -69 172 -124 261 -218 444 -548 480 -862 4 -33 9 -62 11 -65 2 -3 -16 -12
-39 -19 -67 -20 -136 -58 -227 -125 -111 -82 -147 -97 -246 -100 -107 -3 -161
16 -273 99 -154 115 -240 146 -400 146 -139 0 -232 -35 -376 -142 -120 -89
-152 -102 -265 -102 -84 0 -101 3 -149 27 -29 15 -65 36 -80 48 -97 75 -133
98 -187 122 -91 40 -155 50 -269 44 -148 -8 -202 -32 -378 -160 -92 -67 -152
-86 -253 -82 -96 4 -140 23 -260 113 -94 70 -182 113 -245 121 -5 0 -8 4 -6 9
3 4 8 32 11 63 14 134 80 337 153 469 70 128 204 293 319 390 275 235 677 391
1098 427 39 3 72 7 74 8 6 5 383 -3 437 -9z m-790 -1574 c22 -8 87 -49 145
-89 58 -41 124 -84 149 -95 73 -33 177 -50 266 -44 138 9 210 38 350 141 124
92 145 100 265 100 120 0 143 -8 265 -99 156 -116 225 -141 385 -141 156 0
235 29 385 140 61 45 125 85 138 85 6 0 -2 -74 -19 -174 -67 -392 -311 -739
-699 -992 -130 -84 -283 -160 -415 -204 -248 -84 -316 -118 -393 -197 -77 -79
-120 -176 -208 -472 -43 -144 -77 -231 -89 -231 -11 0 -43 81 -75 185 -119
397 -170 497 -297 583 -61 40 -102 58 -267 114 -354 119 -639 307 -857 563
-173 205 -288 460 -320 714 -14 111 -14 112 10 105 11 -4 46 -24 76 -46 217
-153 264 -172 430 -172 86 -1 129 4 170 18 53 18 175 83 202 109 44 42 127 92
178 108 42 13 182 8 225 -9z"/>
</g>
</svg>
