<svg data-v-fde0c5aa="" xmlns="http://www.w3.org/2000/svg" viewBox="0 0 0 0" class="iconLeft"><!----><defs data-v-fde0c5aa=""><!----></defs><g data-v-fde0c5aa="" id="3f273494-36b6-4eb2-9139-787dea2dbd1e" stroke="none" fill="#F1C808"><path d="M57.823 29.225l6.242-14.127c.188-.426.193-.91.015-1.34s-.526-.768-.96-.934l-9.49-3.643a1.7 1.7 0 0 0-2.165.9l-1.573 3.562-1.572-3.561a1.7 1.7 0 0 0-2.165-.9l-9.491 3.644c-.435.167-.782.504-.96.934s-.173.914.015 1.34l6.259 14.169c-12.998 2.643-21.53 11.77-21.531 23.987 0 8.786 4.323 16.13 12.501 21.235 2.247 1.405 4.744 2.524 7.421 3.327 3.195.96 3.419 1.63 4.497 4.852l.171.512c.059.175.135.458.229.808.753 2.765 1.891 6.943 4.733 6.944h.002c2.842-.001 3.98-4.183 4.733-6.95.095-.348.169-.629.228-.803l.172-.514c1.078-3.219 1.302-3.889 4.495-4.849 2.675-.802 5.172-1.921 7.423-3.326 8.178-5.107 12.5-12.45 12.5-21.236.001-12.282-8.617-21.444-21.729-24.031zm-3.901-16.29l6.312 2.422-4.795 10.85-3.688-8.355 2.171-4.917zm-14.371 2.423l6.312-2.423 6.905 15.642a41.97 41.97 0 0 0-7.312.151l-5.905-13.37zm10.45 16.526c14.64 0 25.075 7.948 26.066 19.545-1.737.362-2.846 1.213-3.775 1.933-1.07.83-1.915 1.484-3.722 1.484s-2.652-.655-3.722-1.484c-1.215-.942-2.727-2.114-5.562-2.114-2.832 0-4.342 1.172-5.555 2.114-1.069.829-1.913 1.484-3.718 1.484-1.806 0-2.651-.655-3.72-1.484-1.214-.942-2.726-2.114-5.559-2.114s-4.343 1.172-5.557 2.114c-1.069.829-1.913 1.484-3.718 1.484-1.804 0-2.648-.655-3.716-1.484-.936-.726-2.054-1.583-3.811-1.94.997-11.593 11.431-19.538 26.069-19.538zm15.251 39.723c-1.994 1.245-4.213 2.238-6.6 2.954-4.881 1.467-5.581 3.559-6.742 7.025l-.17.508c-.073.216-.169.564-.287.996-.644 2.367-1.119 3.543-1.454 4.108-.334-.564-.809-1.738-1.453-4.103a19.383 19.383 0 0 0-.289-1.001l-.167-.504c-1.16-3.469-1.86-5.562-6.743-7.029-2.388-.716-4.607-1.709-6.598-2.954-4.75-2.966-10.358-8.312-10.853-17.099.771.266 1.347.711 2.008 1.225 1.214.942 2.724 2.114 5.556 2.114 2.833 0 4.343-1.172 5.557-2.114 1.069-.83 1.913-1.484 3.718-1.484 1.806 0 2.651.655 3.72 1.484 1.214.942 2.726 2.114 5.559 2.114s4.344-1.172 5.558-2.115c1.068-.829 1.912-1.484 3.716-1.484 1.808 0 2.653.655 3.723 1.485 1.214.942 2.726 2.114 5.56 2.114 2.833 0 4.345-1.172 5.56-2.113.651-.504 1.221-.942 1.973-1.209-.501 8.776-6.105 14.118-10.852 17.082z"></path></g><!----></svg>